<svg xmlns="http://www.w3.org/2000/svg" role="img" aria-labelledby="nd-title nd-desc" width="1652" height="301" viewBox="0 0 1652 301" font-family="ui-monospace,Menlo,monospace">
    <title id="nd-title">Edge &amp; app tier</title>
    <desc id="nd-desc">5 nodes, 2 groups, 4 connections</desc>
    <defs>
    <pattern id="gridS" width="12" height="12" patternUnits="userSpaceOnUse">
      <path d="M12 0H0v12" fill="none" stroke="#e7ece2" stroke-width=".6"/>
    </pattern>
    <pattern id="gridL" width="60" height="60" patternUnits="userSpaceOnUse">
      <rect width="60" height="60" fill="url(#gridS)"/>
      <path d="M60 0H0v60" fill="none" stroke="#dde3d7" stroke-width="1"/>
    </pattern>
    <marker id="ah-0f766e" viewBox="0 0 10 10" refX="8.6" refY="5" markerWidth="7.5" markerHeight="7.5" orient="auto-start-reverse">
      <path d="M0 .8 9.2 5 0 9.2z" fill="#0f766e"/>
    </marker>
    <marker id="ah-7c3aed" viewBox="0 0 10 10" refX="8.6" refY="5" markerWidth="7.5" markerHeight="7.5" orient="auto-start-reverse">
      <path d="M0 .8 9.2 5 0 9.2z" fill="#7c3aed"/>
    </marker>
    <marker id="ah-1d4ed8" viewBox="0 0 10 10" refX="8.6" refY="5" markerWidth="7.5" markerHeight="7.5" orient="auto-start-reverse">
      <path d="M0 .8 9.2 5 0 9.2z" fill="#1d4ed8"/>
    </marker></defs>
    <rect width="1652" height="301" fill="#fafbf7"/>
    <rect width="1652" height="301" fill="url(#gridL)"/>
    <g transform="translate(26,26)">
      <rect x="611" y="16" width="244" height="149" rx="8" fill="rgba(180,83,9,.05)" stroke="#c98a4b" stroke-width="1.4"/>
      <text x="625" y="38" font-family="ui-monospace,Menlo,monospace" font-size="11" font-weight="700" letter-spacing="1.6" fill="#9a5b17">DMZ</text>
      <rect class="attr-box" x="686" y="132" width="161" height="25" rx="3" fill="#ffffff" fill-opacity=".8" stroke="#c98a4b" stroke-width=".9"/><text x="696" y="148" font-family="ui-monospace,Menlo,monospace" font-size="10.5" fill="#9a5b17"><tspan opacity=".6">cidr: </tspan><tspan opacity=".9">10.0.10.0/24</tspan></text><rect x="969" y="16" width="615" height="149" rx="8" fill="rgba(192,57,43,.03)" stroke="#d0685c" stroke-width="1.4" stroke-dasharray="8 5"/>
      <text x="983" y="38" font-family="ui-monospace,Menlo,monospace" font-size="11" font-weight="700" letter-spacing="1.6" fill="#a83a2e">APP TIER</text>
      <rect class="attr-box" x="1415" y="132" width="161" height="25" rx="3" fill="#ffffff" fill-opacity=".8" stroke="#d0685c" stroke-width=".9"/><text x="1425" y="148" font-family="ui-monospace,Menlo,monospace" font-size="10.5" fill="#a83a2e"><tspan opacity=".6">cidr: </tspan><tspan opacity=".9">10.0.20.0/24</tspan></text>
      <path class="edge" data-label="tcp/443 https" d="M186 92 L282 92" fill="none" stroke="#0f766e" stroke-width="2" marker-end="url(#ah-0f766e)"/><path class="edge" data-label="tcp/443 https" d="M506 92 L633 92" fill="none" stroke="#0f766e" stroke-width="2" marker-end="url(#ah-0f766e)"/><path class="edge" data-label="tcp/8080 api" d="M833 92 L991 92" fill="none" stroke="#7c3aed" stroke-width="2" marker-end="url(#ah-7c3aed)"/><path class="edge" data-label="tcp/5432 pgsql" d="M1274 92 L1370 92" fill="none" stroke="#1d4ed8" stroke-width="2" marker-end="url(#ah-1d4ed8)"/>
      <g>
      <rect x="633" y="62" width="200" height="60" rx="6" fill="#ffffff" stroke="#24344d" stroke-width="1.5"/>
      <rect x="636" y="65" width="194" height="54" rx="4" fill="none" stroke="#24344d" stroke-width=".8"/>
      <g transform="translate(658,71)"><g fill="none" stroke="#24344d" stroke-width="1.6" stroke-linecap="round" stroke-linejoin="round" color="#24344d"><rect x="6" y="6" width="12" height="12" rx="1"/><rect x="10" y="10" width="4" height="4"/><path d="M9.5 6V3M14.5 6V3M9.5 21v-3M14.5 21v-3M6 9.5H3M6 14.5H3M21 9.5h-3M21 14.5h-3"/></g></g>
      <text x="670" y="108" text-anchor="middle" font-family="ui-monospace,Menlo,monospace" font-size="8.5" font-weight="700" letter-spacing=".5" fill="#7a8798">SERVER</text>
      <text x="707" y="84" font-family="ui-monospace,Menlo,monospace" font-size="13" font-weight="600" fill="#1a2638">web-01</text>
      <text x="707" y="100" font-family="ui-monospace,Menlo,monospace" font-size="10.5"><tspan fill="#7a8798">os: </tspan><tspan fill="#3f5e8c">linux</tspan></text><text x="707" y="114" font-family="ui-monospace,Menlo,monospace" font-size="10.5"><tspan fill="#7a8798">ip: </tspan><tspan fill="#3f5e8c">10.0.10.11</tspan></text>
      
    </g><g>
      <rect x="991" y="62" width="283" height="60" rx="6" fill="#ffffff" stroke="#24344d" stroke-width="1.5" stroke-dasharray="2 3"/>
      
      <g transform="translate(1028.5,71)"><g fill="none" stroke="#24344d" stroke-width="1.6" stroke-linecap="round" stroke-linejoin="round" color="#24344d"><rect x="2" y="7" width="20" height="11" rx="1.5"/><path d="M6.5 10v5M12 10v5M17.5 10v5"/></g></g>
      <text x="1040.5" y="108" text-anchor="middle" font-family="ui-monospace,Menlo,monospace" font-size="8.5" font-weight="700" letter-spacing=".5" fill="#7a8798">CONTAINER</text>
      <text x="1090" y="84" font-family="ui-monospace,Menlo,monospace" font-size="13" font-weight="600" fill="#1a2638">app-01</text>
      <text x="1090" y="100" font-family="ui-monospace,Menlo,monospace" font-size="10.5"><tspan fill="#7a8798">os: </tspan><tspan fill="#3f5e8c">linux</tspan></text><text x="1090" y="114" font-family="ui-monospace,Menlo,monospace" font-size="10.5"><tspan fill="#7a8798">ip: </tspan><tspan fill="#3f5e8c">10.0.20.11</tspan></text>
      <rect x="1222" y="68" width="45" height="12" rx="6" fill="#eef1f4" stroke="#9aa7ba" stroke-width=".8"/>
      <text x="1244.5" y="77" text-anchor="middle" font-family="ui-monospace,Menlo,monospace" font-size="8" font-weight="700" letter-spacing=".8" fill="#5b6874">PROD</text>
    </g><g>
      <rect x="1370" y="62" width="192" height="60" rx="6" fill="#ffffff" stroke="#24344d" stroke-width="1.5"/>
      <rect x="1373" y="65" width="186" height="54" rx="4" fill="none" stroke="#24344d" stroke-width=".8"/>
      <g transform="translate(1391,71)"><g fill="none" stroke="#24344d" stroke-width="1.6" stroke-linecap="round" stroke-linejoin="round" color="#24344d"><ellipse cx="12" cy="5.5" rx="8" ry="3"/><path d="M4 5.5v13c0 1.66 3.58 3 8 3s8-1.34 8-3v-13M4 12c0 1.66 3.58 3 8 3s8-1.34 8-3"/></g></g>
      <text x="1403" y="108" text-anchor="middle" font-family="ui-monospace,Menlo,monospace" font-size="8.5" font-weight="700" letter-spacing=".5" fill="#7a8798">METAL</text>
      <text x="1436" y="84" font-family="ui-monospace,Menlo,monospace" font-size="13" font-weight="600" fill="#1a2638">pg-primary</text>
      <text x="1436" y="100" font-family="ui-monospace,Menlo,monospace" font-size="10.5"><tspan fill="#7a8798">os: </tspan><tspan fill="#3f5e8c">linux</tspan></text><text x="1436" y="114" font-family="ui-monospace,Menlo,monospace" font-size="10.5"><tspan fill="#7a8798">ip: </tspan><tspan fill="#3f5e8c">10.0.20.21</tspan></text>
      
    </g><g>
      <rect x="16" y="65" width="170" height="54" rx="6" fill="#ffffff" stroke="#24344d" stroke-width="1.5"/>
      
      <g transform="translate(49.5,74)"><g fill="none" stroke="#24344d" stroke-width="1.6" stroke-linecap="round" stroke-linejoin="round" color="#24344d"><circle cx="12" cy="12" r="9.5"/><ellipse cx="12" cy="12" rx="4.2" ry="9.5"/><path d="M2.5 12h19M4 7h16M4 17h16"/></g></g>
      <text x="61.5" y="111" text-anchor="middle" font-family="ui-monospace,Menlo,monospace" font-size="8.5" font-weight="700" letter-spacing=".5" fill="#7a8798">INTERNET</text>
      <text x="107" y="87" font-family="ui-monospace,Menlo,monospace" font-size="13" font-weight="600" fill="#1a2638">Internet</text>
      
      
    </g><g>
      <rect x="282" y="62" width="224" height="60" rx="6" fill="#ffffff" stroke="#24344d" stroke-width="1.5"/>
      
      <g transform="translate(315.5,71)"><g fill="none" stroke="#24344d" stroke-width="1.6" stroke-linecap="round" stroke-linejoin="round" color="#24344d"><rect x="3" y="4" width="18" height="16" rx="1"/><path d="M3 9.3h18M3 14.6h18M9 4v5.3M15 4v5.3M6 9.3v5.3M12 9.3v5.3M18 9.3v5.3M9 14.6V20M15 14.6V20"/></g></g>
      <text x="327.5" y="108" text-anchor="middle" font-family="ui-monospace,Menlo,monospace" font-size="8.5" font-weight="700" letter-spacing=".5" fill="#7a8798">FIREWALL</text>
      <text x="373" y="84" font-family="ui-monospace,Menlo,monospace" font-size="13" font-weight="600" fill="#1a2638">Edge FW</text>
      <text x="373" y="100" font-family="ui-monospace,Menlo,monospace" font-size="10.5"><tspan fill="#7a8798">os: </tspan><tspan fill="#3f5e8c">bsd</tspan></text><text x="373" y="114" font-family="ui-monospace,Menlo,monospace" font-size="10.5"><tspan fill="#7a8798">ip: </tspan><tspan fill="#3f5e8c">203.0.113.1</tspan></text>
      
    </g>
      <text class="edge-lbl" data-label="tcp/443 https" x="234" y="87" text-anchor="middle" font-family="ui-monospace,Menlo,monospace" font-size="11" fill="#0f766e" stroke="#fafbf7" stroke-width="4" paint-order="stroke" stroke-linejoin="round">tcp/443 https</text><text class="edge-lbl" data-label="tcp/443 https" x="569.5" y="87" text-anchor="middle" font-family="ui-monospace,Menlo,monospace" font-size="11" fill="#0f766e" stroke="#fafbf7" stroke-width="4" paint-order="stroke" stroke-linejoin="round">tcp/443 https</text><text class="edge-lbl" data-label="tcp/8080 api" x="912" y="87" text-anchor="middle" font-family="ui-monospace,Menlo,monospace" font-size="11" fill="#7c3aed" stroke="#fafbf7" stroke-width="4" paint-order="stroke" stroke-linejoin="round">tcp/8080 api</text><text class="edge-lbl" data-label="tcp/5432 pgsql" x="1322" y="87" text-anchor="middle" font-family="ui-monospace,Menlo,monospace" font-size="11" fill="#1d4ed8" stroke="#fafbf7" stroke-width="4" paint-order="stroke" stroke-linejoin="round">tcp/5432 pgsql</text>
    </g>
    <g>
    <rect x="1402" y="233" width="232" height="54" fill="#ffffff" stroke="#24344d" stroke-width="1.4"/>
    <path d="M1402 253 h232 M1552 253 V287" stroke="#24344d" stroke-width="1"/>
    <text x="1411" y="247.5" font-family="ui-monospace,Menlo,monospace" font-size="10.5" font-weight="700" letter-spacing="1.2" fill="#24344d">EDGE &amp; APP TIER</text>
    <text x="1411" y="270" font-family="ui-monospace,Menlo,monospace" font-size="9" letter-spacing="1" fill="#7a8798">DRAWN</text>
    <text x="1411" y="281" font-family="ui-monospace,Menlo,monospace" font-size="10" fill="#24344d">netdiagram v0.1.0</text>
    <text x="1561" y="270" font-family="ui-monospace,Menlo,monospace" font-size="9" letter-spacing="1" fill="#7a8798">DATE</text>
    <text x="1561" y="281" font-family="ui-monospace,Menlo,monospace" font-size="10" fill="#24344d">2026-07-13</text>
    
  </g>
  </svg>